<?xml version="1.0" encoding="utf-8"?>
<!-- Generator: Adobe Illustrator 15.0.0, SVG Export Plug-In . SVG Version: 6.00 Build 0)  -->
<!DOCTYPE svg PUBLIC "-//W3C//DTD SVG 1.1//EN" "http://www.w3.org/Graphics/SVG/1.1/DTD/svg11.dtd">
<svg version="1.1" id="Layer_1" xmlns="http://www.w3.org/2000/svg" xmlns:xlink="http://www.w3.org/1999/xlink" x="0px" y="0px"
	 width="212px" height="260px" viewBox="0 0 212 260" style="enable-background:new 0 0 212 260;" xml:space="preserve">
<style type="text/css">
<![CDATA[
	.st0{fill:#E27D00;}
]]>
</style>
<g>
	<g>
		<path class="st0" d="M74.2,251.9c0.1-19,0.2-38,0.3-57.1c0-2.3-1.3-5.1-3.5-6c-21.7-9.9-38.6-26.9-48.3-48.6
			c-9.5-21.3-9.1-46-1.1-67.7c15.7-42.3,62.7-65.8,106-55.6c36.5,8.6,63.4,39.6,68.9,76.3c6,40.1-17.3,79.3-53.7,95.6
			c-2.2,1-3.5,3.8-3.5,6c0.2,19,0.4,38,0.6,57c0.1,9,14.1,9,14,0c-0.2-19-0.4-38-0.6-57c-1.2,2-2.3,4-3.5,6
			c45.1-20.2,68.9-70.2,59-118.1c-9.4-45.4-49.9-78.6-95.5-82.1C66.9-2.9,23.8,26.8,7.8,70c-17.3,46.6,3.5,99.1,45,124.9
			c3.6,2.2,7.4,4.2,11.3,5.9c-1.2-2-2.3-4-3.5-6c-0.1,19-0.2,38-0.3,57.1C60.2,260.9,74.2,260.9,74.2,251.9L74.2,251.9z"/>
	</g>
</g>
</svg>
